<?xml version="1.0" encoding="utf-8"?>
<svg xmlns="http://www.w3.org/2000/svg" viewBox="9.1064 8.2064 493.7872 495.5872" width="493.787px" height="495.587px" xmlns:bx="https://boxy-svg.com">
  <defs>
    <radialGradient gradientUnits="userSpaceOnUse" cx="512" cy="512" r="276.008" id="gradient-27">
      <stop offset="0" style="stop-color: rgb(100% 19.608% 0%)"/>
      <stop offset="1" style="stop-color: rgb(67.093% 0% 0%)"/>
    </radialGradient>
    <radialGradient gradientUnits="userSpaceOnUse" cx="264.051" cy="570.869" r="11.968" id="gradient-5">
      <stop offset="0" style="stop-color: rgb(100% 77.255% 24.706%)"/>
      <stop offset="1" style="stop-color: rgb(61.05% 42.989% 0%)"/>
    </radialGradient>
    <radialGradient gradientUnits="userSpaceOnUse" cx="328.259" cy="514.157" r="11.968" id="gradient-4">
      <stop offset="0" style="stop-color: rgb(100% 75.294% 9.4118%)"/>
      <stop offset="1" style="stop-color: rgb(60.819% 41.935% 0%)"/>
    </radialGradient>
    <radialGradient gradientUnits="userSpaceOnUse" cx="417.451" cy="433.797" r="11.968" id="gradient-0">
      <stop offset="0" style="stop-color: rgb(100% 72.157% 32.549%)"/>
      <stop offset="1" style="stop-color: rgb(62.468% 39.356% 0%)"/>
    </radialGradient>
    <radialGradient gradientUnits="userSpaceOnUse" cx="465.155" cy="348.791" r="11.968" id="gradient-1">
      <stop offset="0" style="stop-color: rgb(100% 71.765% 21.569%)"/>
      <stop offset="1" style="stop-color: rgb(62.266% 39.202% 0%)"/>
    </radialGradient>
    <radialGradient gradientUnits="userSpaceOnUse" cx="446.984" cy="245.21" r="11.968" id="gradient-3">
      <stop offset="0" style="stop-color: rgb(100% 87.451% 14.118%)"/>
      <stop offset="1" style="stop-color: rgb(57.903% 49.894% 0%)"/>
    </radialGradient>
    <radialGradient gradientUnits="userSpaceOnUse" cx="265.262" cy="224.009" r="11.968" id="gradient-11">
      <stop offset="0" style="stop-color: rgb(100% 78.824% 27.059%)"/>
      <stop offset="1" style="stop-color: rgb(60.734% 44.034% 0%)"/>
    </radialGradient>
    <radialGradient gradientUnits="userSpaceOnUse" cx="167.132" cy="199.174" r="11.968" id="gradient-10">
      <stop offset="0" style="stop-color: rgb(100% 75.686% 25.098%)"/>
      <stop offset="1" style="stop-color: rgb(61.435% 41.909% 0%)"/>
    </radialGradient>
    <radialGradient gradientUnits="userSpaceOnUse" cx="91.415" cy="247.027" r="11.968" id="gradient-9">
      <stop offset="0" style="stop-color: rgb(100% 81.569% 21.961%)"/>
      <stop offset="1" style="stop-color: rgb(59.91% 45.923% 0%)"/>
    </radialGradient>
    <radialGradient gradientUnits="userSpaceOnUse" cx="69.609" cy="348.791" r="11.968" id="gradient-8">
      <stop offset="0" style="stop-color: rgb(100% 78.431% 18.824%)"/>
      <stop offset="1" style="stop-color: rgb(60.552% 43.865% 0%)"/>
    </radialGradient>
    <radialGradient gradientUnits="userSpaceOnUse" cx="119.885" cy="434.806" r="11.968" id="gradient-7">
      <stop offset="0" style="stop-color: rgb(100% 66.275% 14.902%)"/>
      <stop offset="1" style="stop-color: rgb(63.39% 35.279% 0%)"/>
    </radialGradient>
    <radialGradient gradientUnits="userSpaceOnUse" cx="202.265" cy="513.552" r="11.968" id="gradient-6">
      <stop offset="0" style="stop-color: rgb(100% 82.353% 25.49%)"/>
      <stop offset="1" style="stop-color: rgb(59.816% 46.414% 0%)"/>
    </radialGradient>
    <radialGradient gradientUnits="userSpaceOnUse" cx="294.017" cy="326.551" r="28.329" id="gradient-2" gradientTransform="matrix(1, 0, 0.010875, 0.821616, -3.349197, 62.328182)">
      <stop offset="0" style="stop-color: rgb(85.49% 65.882% 3.5294%)"/>
      <stop offset="1" style="stop-color: rgb(52.039% 37.266% 0%)"/>
    </radialGradient>
    <style>
      .twinkle {
        animation: twinkle 2s ease-in-out infinite;
      }
      @keyframes twinkle {
        0%, 100% { opacity: 1; transform: scale(1); }
        50% { opacity: 0.4; transform: scale(1.1); }
      }
      .pulse {
        animation: pulse 2.5s ease-in-out infinite;
      }
      @keyframes pulse {
        0%, 100% { transform: scale(1); filter: brightness(1); }
        50% { transform: scale(1.03); filter: brightness(1.2); }
      }
      .small-twinkle {
        animation: small-twinkle 3s ease-in-out infinite alternate;
      }
      @keyframes small-twinkle {
        0%, 100% { opacity: 0.8; transform: scale(1); }
        50% { opacity: 1; transform: scale(1.05); }
      }
      .float {
        animation: float 6s ease-in-out infinite;
      }
      @keyframes float {
        0%, 100% { transform: translateY(0); }
        50% { transform: translateY(-10px); }
      }
      .text-glow {
        animation: text-glow 2s ease-in-out infinite alternate;
      }
      @keyframes text-glow {
        0% { filter: drop-shadow(0 0 2px rgba(255,255,255,0.5)); }
        100% { filter: drop-shadow(0 0 8px rgba(255,255,255,0.8)); }
      }
    </style>
  </defs>
  <circle cx="512" cy="512" r="276.008" style="fill: url(&quot;#gradient-27&quot;); stroke-width: 0px;" transform="matrix(0.8945160508155823, 0, 0, 0.8977769613265991, -201.99221801757812, -203.66180419921875)"/>
  
  <path d="M 170.034 166.342 C 171.485 164.829 173.457 163.631 175.01 162.091 C 176.561 160.555 178.144 159.011 179.728 157.468 C 181.314 155.924 182.902 154.384 184.457 152.855 C 186.015 151.326 187.541 149.806 189.004 148.307 C 190.465 146.812 191.866 145.332 193.173 143.884 C 194.479 142.439 195.689 141.02 196.771 139.64 C 197.855 138.259 198.811 136.919 199.609 135.629 C 200.407 134.334 201.043 133.093 201.488 131.906 C 201.713 131.204 201.881 130.462 201.988 129.689 C 202.094 128.913 202.144 128.109 202.127 127.283 C 202.113 126.454 202.033 125.606 201.886 124.745 C 201.739 123.882 201.524 123.01 201.237 122.137 C 200.953 121.26 200.596 120.384 200.163 119.516 C 199.73 118.646 199.221 117.787 198.631 116.944 C 198.044 116.101 197.379 115.276 196.626 114.482 C 195.878 113.684 195.043 112.915 194.122 112.184 C 193.369 111.577 192.529 111.044 191.622 110.588 C 190.72 110.132 189.752 109.749 188.742 109.446 C 187.731 109.142 186.68 108.913 185.61 108.762 C 184.542 108.61 183.456 108.531 182.374 108.531 C 181.295 108.531 180.218 108.61 179.169 108.76 C 178.123 108.913 177.103 109.142 176.134 109.446 C 175.169 109.749 174.253 110.132 173.408 110.588 C 172.567 111.042 171.8 111.577 171.13 112.184 C 170.461 111.577 169.694 111.042 168.851 110.588 C 168.008 110.132 167.09 109.749 166.122 109.446 C 165.151 109.142 164.131 108.913 163.078 108.76 C 162.027 108.61 160.947 108.531 159.856 108.531 C 158.769 108.531 157.674 108.61 156.594 108.76 C 155.515 108.913 154.452 109.142 153.427 109.446 C 152.4 109.749 151.413 110.132 150.487 110.588 C 149.562 111.042 148.695 111.577 147.914 112.184 C 147.007 112.915 146.186 113.684 145.448 114.48 C 144.704 115.276 144.049 116.101 143.469 116.942 C 142.891 117.787 142.387 118.646 141.961 119.516 C 141.532 120.384 141.177 121.26 140.896 122.137 C 140.614 123.01 140.403 123.882 140.256 124.745 C 140.112 125.606 140.034 126.456 140.02 127.283 C 140.003 128.111 140.053 128.916 140.162 129.691 C 140.268 130.462 140.436 131.204 140.659 131.906 C 140.884 133.093 141.248 134.284 141.755 135.492 C 142.261 136.699 142.903 137.922 143.679 139.172 C 144.453 140.42 145.36 141.697 146.392 143.008 C 147.422 144.321 148.582 145.667 149.857 147.059 C 151.133 148.453 152.53 149.894 154.035 151.391 C 155.546 152.889 157.167 154.442 158.895 156.063 C 160.623 157.684 162.455 159.372 164.391 161.137 C 166.325 162.902 167.904 164.411 170.034 166.342 Z"
  stroke="#333" 
  style="fill: rgb(255, 255, 255);"/>
  <g transform="matrix(1, 0, 0, 1, -15.157610893249512, -127.50698852539062)">
    <path d="M 268.039 495.071 C 273.817 489.332 279.933 484.791 286.107 478.961 C 292.28 473.132 298.588 467.275 304.902 461.426 C 311.216 455.576 317.535 449.734 323.733 443.935 C 329.931 438.137 336.007 432.38 341.832 426.7 C 347.658 421.022 353.234 415.42 358.432 409.931 C 363.629 404.442 368.449 399.066 372.763 393.836 C 377.077 388.607 380.885 383.526 384.059 378.626 C 387.233 373.726 389.773 369.009 391.55 364.509 C 392.439 361.856 393.105 359.043 393.534 356.111 C 393.962 353.177 394.154 350.124 394.091 346.986 C 394.029 343.85 393.713 340.63 393.127 337.365 C 392.543 334.1 391.688 330.791 390.55 327.474 C 389.411 324.158 387.987 320.834 386.263 317.541 C 384.539 314.247 382.515 310.984 380.175 307.79 C 377.834 304.597 375.178 301.47 372.19 298.452 C 369.203 295.433 365.883 292.52 362.216 289.751 C 359.216 287.443 355.869 285.423 352.266 283.692 C 348.664 281.962 344.806 280.519 340.785 279.365 C 336.764 278.212 332.581 277.346 328.325 276.769 C 324.07 276.191 319.744 275.903 315.438 275.903 C 311.133 275.903 306.848 276.191 302.676 276.768 C 298.504 277.345 294.445 278.211 290.591 279.364 C 286.737 280.518 269.518 287.743 270.195 287.552 C 270.872 287.361 292.882 304.106 282.332 311.092 C 289.865 296.035 268.366 286.787 261.902 283.612 C 255.438 280.437 254.636 280.33 250.716 279.364 C 246.796 278.398 242.786 277.345 238.598 276.768 C 234.411 276.191 230.106 275.903 225.772 275.903 C 221.439 275.903 217.077 276.191 212.779 276.768 C 208.48 277.345 204.244 278.211 200.16 279.364 C 196.077 280.518 192.147 281.961 188.459 283.691 C 184.772 285.421 181.327 287.44 178.216 289.748 C 174.605 292.517 171.334 295.431 168.389 298.449 C 165.443 301.469 162.823 304.596 160.514 307.789 C 158.205 310.983 156.207 314.246 154.505 317.54 C 152.802 320.833 151.396 324.157 150.271 327.474 C 149.146 330.792 148.302 334.102 147.725 337.366 C 147.148 340.632 146.837 343.852 146.778 346.988 C 146.719 350.126 146.912 353.179 147.342 356.113 C 147.771 359.046 148.438 361.859 149.327 364.512 C 150.216 369.012 151.679 373.532 153.691 378.109 C 155.703 382.688 158.264 387.327 161.349 392.063 C 164.434 396.799 168.044 401.634 172.152 406.605 C 176.261 411.577 180.869 416.686 185.951 421.97 C 191.034 427.254 196.59 432.715 202.596 438.391 C 208.603 444.067 215.058 449.957 221.938 456.102 C 228.818 462.247 236.123 468.646 243.827 475.338 C 251.532 482.031 259.56 487.754 268.039 495.071 Z" stroke="#333" style="fill: rgb(255, 255, 255); stroke-dashoffset: 2px; stroke-miterlimit: 1; stroke-width: 2px;"/>
    <path d="M 264.051 559.211 L 267.01 567.929 L 276.019 568.117 L 268.838 573.693 L 271.448 582.527 L 264.051 577.256 L 256.654 582.527 L 259.264 573.693 L 252.083 568.117 L 261.092 567.929 Z" bx:shape="star 264.051 572.1 12.584 12.889 0.4 5 1@a501139b" style="stroke: rgb(0, 0, 0); paint-order: fill; stroke-width: 1; fill: url(&quot;#gradient-5&quot;);"/>
    <path d="M 328.259 502.499 L 331.218 511.217 L 340.227 511.405 L 333.046 516.981 L 335.656 525.815 L 328.259 520.544 L 320.862 525.815 L 323.472 516.981 L 316.291 511.405 L 325.3 511.217 Z" bx:shape="star 328.259 515.388 12.584 12.889 0.4 5 1@bfb719bb" style="stroke: rgb(0, 0, 0); paint-order: fill; stroke-width: 1; fill: url(&quot;#gradient-4&quot;);"/>
    <path d="M 417.451 422.139 L 420.41 430.857 L 429.419 431.045 L 422.238 436.621 L 424.848 445.455 L 417.451 440.184 L 410.054 445.455 L 412.664 436.621 L 405.483 431.045 L 414.492 430.857 Z" bx:shape="star 417.451 435.028 12.584 12.889 0.4 5 1@06e2288b" style="stroke: rgb(0, 0, 0); paint-order: fill; stroke-width: 1; fill: url(&quot;#gradient-0&quot;);"/>
    <path d="M 465.155 337.133 L 468.114 345.851 L 477.123 346.039 L 469.942 351.615 L 472.552 360.449 L 465.155 355.178 L 457.758 360.449 L 460.368 351.615 L 453.187 346.039 L 462.196 345.851 Z" bx:shape="star 465.155 350.022 12.584 12.889 0.4 5 1@4e214ac0" style="stroke: rgb(0, 0, 0); paint-order: fill; stroke-width: 1; fill: url(&quot;#gradient-1&quot;);"/>
    <path d="M 446.984 233.552 L 449.943 242.27 L 458.952 242.458 L 451.771 248.034 L 454.381 256.868 L 446.984 251.597 L 439.587 256.868 L 442.197 248.034 L 435.016 242.458 L 444.025 242.27 Z" bx:shape="star 446.984 246.441 12.584 12.889 0.4 5 1@91485155" style="stroke: rgb(0, 0, 0); paint-order: fill; stroke-width: 1; fill: url(&quot;#gradient-3&quot;);"/>
    <path d="M 361.574 184.487 L 364.533 193.205 L 373.542 193.393 L 366.361 198.969 L 368.971 207.803 L 361.574 202.532 L 354.177 207.803 L 356.787 198.969 L 349.606 193.393 L 358.615 193.205 Z" bx:shape="star 361.574 197.376 12.584 12.889 0.4 5 1@8956dcb0" style="stroke: rgb(0, 0, 0); paint-order: fill; stroke-width: 1; fill: rgb(255, 185, 41);"/>
    <path d="M 265.262 212.351 L 268.221 221.069 L 277.23 221.257 L 270.049 226.833 L 272.659 235.667 L 265.262 230.396 L 257.865 235.667 L 260.475 226.833 L 253.294 221.257 L 262.303 221.069 Z" bx:shape="star 265.262 225.24 12.584 12.889 0.4 5 1@8633b991" style="stroke: rgb(0, 0, 0); paint-order: fill; stroke-width: 1; fill: url(&quot;#gradient-11&quot;);"/>
    <path d="M 167.132 187.516 L 170.091 196.234 L 179.1 196.422 L 171.919 201.998 L 174.529 210.832 L 167.132 205.561 L 159.735 210.832 L 162.345 201.998 L 155.164 196.422 L 164.173 196.234 Z" bx:shape="star 167.132 200.405 12.584 12.889 0.4 5 1@c1281c86" style="stroke: rgb(0, 0, 0); paint-order: fill; stroke-width: 1; fill: url(&quot;#gradient-10&quot;);"/>
    <path d="M 91.415 235.369 L 94.374 244.087 L 103.383 244.275 L 96.202 249.851 L 98.812 258.685 L 91.415 253.414 L 84.018 258.685 L 86.628 249.851 L 79.447 244.275 L 88.456 244.087 Z" bx:shape="star 91.415 248.258 12.584 12.889 0.4 5 1@6d5bcd08" style="stroke: rgb(0, 0, 0); paint-order: fill; stroke-width: 1; fill: url(&quot;#gradient-9&quot;);"/>
    <path d="M 69.609 337.133 L 72.568 345.851 L 81.577 346.039 L 74.396 351.615 L 77.006 360.449 L 69.609 355.178 L 62.212 360.449 L 64.822 351.615 L 57.641 346.039 L 66.65 345.851 Z" bx:shape="star 69.609 350.022 12.584 12.889 0.4 5 1@c8ec1920" style="stroke: rgb(0, 0, 0); paint-order: fill; stroke-width: 1; fill: url(&quot;#gradient-8&quot;);"/>
    <path d="M 119.885 423.148 L 122.844 431.866 L 131.853 432.054 L 124.672 437.63 L 127.282 446.464 L 119.885 441.193 L 112.488 446.464 L 115.098 437.63 L 107.917 432.054 L 116.926 431.866 Z" bx:shape="star 119.885 436.037 12.584 12.889 0.4 5 1@f5fef734" style="stroke: rgb(0, 0, 0); paint-order: fill; stroke-width: 1; fill: url(&quot;#gradient-7&quot;);"/>
    <path d="M 202.265 501.894 L 205.224 510.612 L 214.233 510.8 L 207.052 516.376 L 209.662 525.21 L 202.265 519.939 L 194.868 525.21 L 197.478 516.376 L 190.297 510.8 L 199.306 510.612 Z" bx:shape="star 202.265 514.783 12.584 12.889 0.4 5 1@4accea62" style="stroke: rgb(0, 0, 0); paint-order: fill; stroke-width: 1; fill: url(&quot;#gradient-6&quot;);"/>
    <path d="M 378.399 495.213 C 379.012 494.54 379.845 494.007 380.501 493.322 C 381.156 492.639 381.825 491.952 382.494 491.266 C 383.164 490.579 383.835 489.894 384.492 489.214 C 385.15 488.534 385.795 487.858 386.413 487.191 C 387.03 486.526 387.622 485.868 388.174 485.224 C 388.726 484.581 389.237 483.95 389.694 483.336 C 390.152 482.722 390.556 482.126 390.893 481.552 C 391.23 480.976 391.499 480.424 391.687 479.896 C 391.782 479.584 391.853 479.254 391.898 478.91 C 391.943 478.565 391.964 478.207 391.957 477.84 C 391.951 477.471 391.917 477.094 391.855 476.711 C 391.793 476.327 391.702 475.939 391.581 475.551 C 391.461 475.161 391.31 474.771 391.127 474.385 C 390.944 473.998 390.729 473.616 390.48 473.241 C 390.232 472.866 389.951 472.499 389.633 472.146 C 389.317 471.791 388.964 471.449 388.575 471.124 C 388.257 470.854 387.902 470.617 387.519 470.414 C 387.138 470.211 386.729 470.041 386.302 469.906 C 385.875 469.771 385.431 469.669 384.979 469.602 C 384.528 469.534 384.069 469.499 383.612 469.499 C 383.156 469.499 382.701 469.534 382.258 469.601 C 381.816 469.669 381.385 469.771 380.976 469.906 C 380.568 470.041 380.181 470.211 379.824 470.414 C 379.469 470.616 379.145 470.854 378.862 471.124 C 378.579 470.854 378.255 470.616 377.899 470.414 C 377.543 470.211 377.155 470.041 376.746 469.906 C 376.336 469.771 375.905 469.669 375.46 469.601 C 375.016 469.534 374.56 469.499 374.099 469.499 C 373.64 469.499 373.177 469.534 372.721 469.601 C 372.265 469.669 371.816 469.771 371.383 469.906 C 370.949 470.041 370.532 470.211 370.141 470.414 C 369.75 470.616 369.384 470.854 369.054 471.124 C 368.671 471.449 368.324 471.791 368.012 472.145 C 367.698 472.499 367.421 472.866 367.176 473.24 C 366.932 473.616 366.719 473.998 366.539 474.385 C 366.358 474.771 366.208 475.161 366.089 475.551 C 365.97 475.939 365.881 476.327 365.819 476.711 C 365.758 477.094 365.725 477.472 365.719 477.84 C 365.712 478.208 365.733 478.566 365.779 478.911 C 365.824 479.254 365.895 479.584 365.989 479.896 C 366.084 480.424 366.238 480.954 366.452 481.491 C 366.666 482.028 366.937 482.572 367.265 483.128 C 367.592 483.683 367.975 484.251 368.411 484.834 C 368.846 485.418 369.336 486.017 369.875 486.636 C 370.414 487.256 371.004 487.897 371.64 488.563 C 372.278 489.229 372.963 489.92 373.693 490.641 C 374.423 491.362 375.197 492.113 376.015 492.898 C 376.832 493.683 377.499 494.354 378.399 495.213 Z" style="stroke: rgb(51, 51, 51); stroke-width: 1; fill: rgb(255, 255, 255);"/>
    <path d="M 442.91 408.895 C 443.523 408.222 444.356 407.689 445.012 407.004 C 445.667 406.321 446.336 405.634 447.005 404.948 C 447.675 404.261 448.346 403.576 449.003 402.896 C 449.661 402.216 450.306 401.54 450.924 400.873 C 451.541 400.208 452.133 399.55 452.685 398.906 C 453.237 398.263 453.748 397.632 454.205 397.018 C 454.663 396.404 455.067 395.808 455.404 395.234 C 455.741 394.658 456.01 394.106 456.198 393.578 C 456.293 393.266 456.364 392.936 456.409 392.592 C 456.454 392.247 456.475 391.889 456.468 391.522 C 456.462 391.153 456.428 390.776 456.366 390.393 C 456.304 390.009 456.213 389.621 456.092 389.233 C 455.972 388.843 455.821 388.453 455.638 388.067 C 455.455 387.68 455.24 387.298 454.991 386.923 C 454.743 386.548 454.462 386.181 454.144 385.828 C 453.828 385.473 453.475 385.131 453.086 384.806 C 452.768 384.536 452.413 384.299 452.03 384.096 C 451.649 383.893 451.24 383.723 450.813 383.588 C 450.386 383.453 449.942 383.351 449.49 383.284 C 449.039 383.216 448.58 383.181 448.123 383.181 C 447.667 383.181 447.212 383.216 446.769 383.283 C 446.327 383.351 445.896 383.453 445.487 383.588 C 445.079 383.723 444.692 383.893 444.335 384.096 C 443.98 384.298 443.656 384.536 443.373 384.806 C 443.09 384.536 442.766 384.298 442.41 384.096 C 442.054 383.893 441.666 383.723 441.257 383.588 C 440.847 383.453 440.416 383.351 439.971 383.283 C 439.527 383.216 439.071 383.181 438.61 383.181 C 438.151 383.181 437.688 383.216 437.232 383.283 C 436.776 383.351 436.327 383.453 435.894 383.588 C 435.46 383.723 435.043 383.893 434.652 384.096 C 434.261 384.298 433.895 384.536 433.565 384.806 C 433.182 385.131 432.835 385.473 432.523 385.827 C 432.209 386.181 431.932 386.548 431.687 386.922 C 431.443 387.298 431.23 387.68 431.05 388.067 C 430.869 388.453 430.719 388.843 430.6 389.233 C 430.481 389.621 430.392 390.009 430.33 390.393 C 430.269 390.776 430.236 391.154 430.23 391.522 C 430.223 391.89 430.244 392.248 430.29 392.593 C 430.335 392.936 430.406 393.266 430.5 393.578 C 430.595 394.106 430.749 394.636 430.963 395.173 C 431.177 395.71 431.448 396.254 431.776 396.81 C 432.103 397.365 432.486 397.933 432.922 398.516 C 433.357 399.1 433.847 399.699 434.386 400.318 C 434.925 400.938 435.515 401.579 436.151 402.245 C 436.789 402.911 437.474 403.602 438.204 404.323 C 438.934 405.044 439.708 405.795 440.526 406.58 C 441.343 407.365 442.01 408.036 442.91 408.895 Z" stroke="#333" style="fill: rgb(255, 255, 255);"/>
    <path d="M 468.957 313.188 C 469.57 312.515 470.403 311.982 471.059 311.297 C 471.714 310.614 472.383 309.927 473.052 309.241 C 473.722 308.554 474.393 307.869 475.05 307.189 C 475.708 306.509 476.353 305.833 476.971 305.166 C 477.588 304.501 478.18 303.843 478.732 303.199 C 479.284 302.556 479.795 301.925 480.252 301.311 C 480.71 300.697 481.114 300.101 481.451 299.527 C 481.788 298.951 482.057 298.399 482.245 297.871 C 482.34 297.559 482.411 297.229 482.456 296.885 C 482.501 296.54 482.522 296.182 482.515 295.815 C 482.509 295.446 482.475 295.069 482.413 294.686 C 482.351 294.302 482.26 293.914 482.139 293.526 C 482.019 293.136 481.868 292.746 481.685 292.36 C 481.502 291.973 481.287 291.591 481.038 291.216 C 480.79 290.841 480.509 290.474 480.191 290.121 C 479.875 289.766 479.522 289.424 479.133 289.099 C 478.815 288.829 478.46 288.592 478.077 288.389 C 477.696 288.186 477.287 288.016 476.86 287.881 C 476.433 287.746 475.989 287.644 475.537 287.577 C 475.086 287.509 474.627 287.474 474.17 287.474 C 473.714 287.474 473.259 287.509 472.816 287.576 C 472.374 287.644 471.943 287.746 471.534 287.881 C 471.126 288.016 470.739 288.186 470.382 288.389 C 470.027 288.591 469.703 288.829 469.42 289.099 C 469.137 288.829 468.813 288.591 468.457 288.389 C 468.101 288.186 467.713 288.016 467.304 287.881 C 466.894 287.746 466.463 287.644 466.018 287.576 C 465.574 287.509 465.118 287.474 464.657 287.474 C 464.198 287.474 463.735 287.509 463.279 287.576 C 462.823 287.644 462.374 287.746 461.941 287.881 C 461.507 288.016 461.09 288.186 460.699 288.389 C 460.308 288.591 459.942 288.829 459.612 289.099 C 459.229 289.424 458.882 289.766 458.57 290.12 C 458.256 290.474 457.979 290.841 457.734 291.215 C 457.49 291.591 457.277 291.973 457.097 292.36 C 456.916 292.746 456.766 293.136 456.647 293.526 C 456.528 293.914 456.439 294.302 456.377 294.686 C 456.316 295.069 456.283 295.447 456.277 295.815 C 456.27 296.183 456.291 296.541 456.337 296.886 C 456.382 297.229 456.453 297.559 456.547 297.871 C 456.642 298.399 456.796 298.929 457.01 299.466 C 457.224 300.003 457.495 300.547 457.823 301.103 C 458.15 301.658 458.533 302.226 458.969 302.809 C 459.404 303.393 459.894 303.992 460.433 304.611 C 460.972 305.231 461.562 305.872 462.198 306.538 C 462.836 307.204 463.521 307.895 464.251 308.616 C 464.981 309.337 465.755 310.088 466.573 310.873 C 467.39 311.658 468.057 312.329 468.957 313.188 Z" stroke="#333" style="fill: rgb(255, 255, 255);"/>
    <path d="M 411.412 236.866 C 412.025 236.193 412.858 235.66 413.514 234.975 C 414.169 234.292 414.838 233.605 415.507 232.919 C 416.177 232.232 416.848 231.547 417.505 230.867 C 418.163 230.187 418.808 229.511 419.426 228.844 C 420.043 228.179 420.635 227.521 421.187 226.877 C 421.739 226.234 422.25 225.603 422.707 224.989 C 423.165 224.375 423.569 223.779 423.906 223.205 C 424.243 222.629 424.512 222.077 424.7 221.549 C 424.795 221.237 424.866 220.907 424.911 220.563 C 424.956 220.218 424.977 219.86 424.97 219.493 C 424.964 219.124 424.93 218.747 424.868 218.364 C 424.806 217.98 424.715 217.592 424.594 217.204 C 424.474 216.814 424.323 216.424 424.14 216.038 C 423.957 215.651 423.742 215.269 423.493 214.894 C 423.245 214.519 422.964 214.152 422.646 213.799 C 422.33 213.444 421.977 213.102 421.588 212.777 C 421.27 212.507 420.915 212.27 420.532 212.067 C 420.151 211.864 419.742 211.694 419.315 211.559 C 418.888 211.424 418.444 211.322 417.992 211.255 C 417.541 211.187 417.082 211.152 416.625 211.152 C 416.169 211.152 415.714 211.187 415.271 211.254 C 414.829 211.322 414.398 211.424 413.989 211.559 C 413.581 211.694 413.194 211.864 412.837 212.067 C 412.482 212.269 412.158 212.507 411.875 212.777 C 411.592 212.507 411.268 212.269 410.912 212.067 C 410.556 211.864 410.168 211.694 409.759 211.559 C 409.349 211.424 408.918 211.322 408.473 211.254 C 408.029 211.187 407.573 211.152 407.112 211.152 C 406.653 211.152 406.19 211.187 405.734 211.254 C 405.278 211.322 404.829 211.424 404.396 211.559 C 403.962 211.694 403.545 211.864 403.154 212.067 C 402.763 212.269 402.397 212.507 402.067 212.777 C 401.684 213.102 401.337 213.444 401.025 213.798 C 400.711 214.152 400.434 214.519 400.189 214.893 C 399.945 215.269 399.732 215.651 399.552 216.038 C 399.371 216.424 399.221 216.814 399.102 217.204 C 398.983 217.592 398.894 217.98 398.832 218.364 C 398.771 218.747 398.738 219.125 398.732 219.493 C 398.725 219.861 398.746 220.219 398.792 220.564 C 398.837 220.907 398.908 221.237 399.002 221.549 C 399.097 222.077 399.251 222.607 399.465 223.144 C 399.679 223.681 399.95 224.225 400.278 224.781 C 400.605 225.336 400.988 225.904 401.424 226.487 C 401.859 227.071 402.349 227.67 402.888 228.289 C 403.427 228.909 404.017 229.55 404.653 230.216 C 405.291 230.882 405.976 231.573 406.706 232.294 C 407.436 233.015 408.21 233.766 409.028 234.551 C 409.845 235.336 410.512 236.007 411.412 236.866 Z" stroke="#333" style="fill: rgb(255, 255, 255);"/>
    <path d="M 161.242 494.631 C 161.855 493.958 162.688 493.425 163.344 492.74 C 163.999 492.057 164.668 491.37 165.337 490.684 C 166.007 489.997 166.678 489.312 167.335 488.632 C 167.993 487.952 168.638 487.276 169.256 486.609 C 169.873 485.944 170.465 485.286 171.017 484.642 C 171.569 483.999 172.08 483.368 172.537 482.754 C 172.995 482.14 173.399 481.544 173.736 480.97 C 174.073 480.394 174.342 479.842 174.53 479.314 C 174.625 479.002 174.696 478.672 174.741 478.328 C 174.786 477.983 174.807 477.625 174.8 477.258 C 174.794 476.889 174.76 476.512 174.698 476.129 C 174.636 475.745 174.545 475.357 174.424 474.969 C 174.304 474.579 174.153 474.189 173.97 473.803 C 173.787 473.416 173.572 473.034 173.323 472.659 C 173.075 472.284 172.794 471.917 172.476 471.564 C 172.16 471.209 171.807 470.867 171.418 470.542 C 171.1 470.272 170.745 470.035 170.362 469.832 C 169.981 469.629 169.572 469.459 169.145 469.324 C 168.718 469.189 168.274 469.087 167.822 469.02 C 167.371 468.952 166.912 468.917 166.455 468.917 C 165.999 468.917 165.544 468.952 165.101 469.019 C 164.659 469.087 164.228 469.189 163.819 469.324 C 163.411 469.459 163.024 469.629 162.667 469.832 C 162.312 470.034 161.988 470.272 161.705 470.542 C 161.422 470.272 161.098 470.034 160.742 469.832 C 160.386 469.629 159.998 469.459 159.589 469.324 C 159.179 469.189 158.748 469.087 158.303 469.019 C 157.859 468.952 157.403 468.917 156.942 468.917 C 156.483 468.917 156.02 468.952 155.564 469.019 C 155.108 469.087 154.659 469.189 154.226 469.324 C 153.792 469.459 153.375 469.629 152.984 469.832 C 152.593 470.034 152.227 470.272 151.897 470.542 C 151.514 470.867 151.167 471.209 150.855 471.563 C 150.541 471.917 150.264 472.284 150.019 472.658 C 149.775 473.034 149.562 473.416 149.382 473.803 C 149.201 474.189 149.051 474.579 148.932 474.969 C 148.813 475.357 148.724 475.745 148.662 476.129 C 148.601 476.512 148.568 476.89 148.562 477.258 C 148.555 477.626 148.576 477.984 148.622 478.329 C 148.667 478.672 148.738 479.002 148.832 479.314 C 148.927 479.842 149.081 480.372 149.295 480.909 C 149.509 481.446 149.78 481.99 150.108 482.546 C 150.435 483.101 150.818 483.669 151.254 484.252 C 151.689 484.836 152.179 485.435 152.718 486.054 C 153.257 486.674 153.847 487.315 154.483 487.981 C 155.121 488.647 155.806 489.338 156.536 490.059 C 157.266 490.78 158.04 491.531 158.858 492.316 C 159.675 493.101 160.342 493.772 161.242 494.631 Z" stroke="#333" style="fill: rgb(255, 255, 255);"/>
    <path d="M 88.553 406.472 C 89.166 405.799 89.999 405.266 90.655 404.581 C 91.31 403.898 91.979 403.211 92.648 402.525 C 93.318 401.838 93.989 401.153 94.646 400.473 C 95.304 399.793 95.949 399.117 96.567 398.45 C 97.184 397.785 97.776 397.127 98.328 396.483 C 98.88 395.84 99.391 395.209 99.848 394.595 C 100.306 393.981 100.71 393.385 101.047 392.811 C 101.384 392.235 101.653 391.683 101.841 391.155 C 101.936 390.843 102.007 390.513 102.052 390.169 C 102.097 389.824 102.118 389.466 102.111 389.099 C 102.105 388.73 102.071 388.353 102.009 387.97 C 101.947 387.586 101.856 387.198 101.735 386.81 C 101.615 386.42 101.464 386.03 101.281 385.644 C 101.098 385.257 100.883 384.875 100.634 384.5 C 100.386 384.125 100.105 383.758 99.787 383.405 C 99.471 383.05 99.118 382.708 98.729 382.383 C 98.411 382.113 98.056 381.876 97.673 381.673 C 97.292 381.47 96.883 381.3 96.456 381.165 C 96.029 381.03 95.585 380.928 95.133 380.861 C 94.682 380.793 94.223 380.758 93.766 380.758 C 93.31 380.758 92.855 380.793 92.412 380.86 C 91.97 380.928 91.539 381.03 91.13 381.165 C 90.722 381.3 90.335 381.47 89.978 381.673 C 89.623 381.875 89.299 382.113 89.016 382.383 C 88.733 382.113 88.409 381.875 88.053 381.673 C 87.697 381.47 87.309 381.3 86.9 381.165 C 86.49 381.03 86.059 380.928 85.614 380.86 C 85.17 380.793 84.714 380.758 84.253 380.758 C 83.794 380.758 83.331 380.793 82.875 380.86 C 82.419 380.928 81.97 381.03 81.537 381.165 C 81.103 381.3 80.686 381.47 80.295 381.673 C 79.904 381.875 79.538 382.113 79.208 382.383 C 78.825 382.708 78.478 383.05 78.166 383.404 C 77.852 383.758 77.575 384.125 77.33 384.499 C 77.086 384.875 76.873 385.257 76.693 385.644 C 76.512 386.03 76.362 386.42 76.243 386.81 C 76.124 387.198 76.035 387.586 75.973 387.97 C 75.912 388.353 75.879 388.731 75.873 389.099 C 75.866 389.467 75.887 389.825 75.933 390.17 C 75.978 390.513 76.049 390.843 76.143 391.155 C 76.238 391.683 76.392 392.213 76.606 392.75 C 76.82 393.287 77.091 393.831 77.419 394.387 C 77.746 394.942 78.129 395.51 78.565 396.093 C 79 396.677 79.49 397.276 80.029 397.895 C 80.568 398.515 81.158 399.156 81.794 399.822 C 82.432 400.488 83.117 401.179 83.847 401.9 C 84.577 402.621 85.351 403.372 86.169 404.157 C 86.986 404.942 87.653 405.613 88.553 406.472 Z" stroke="#333" style="fill: rgb(255, 255, 255);"/>
    <path d="M 72.198 311.85 C 72.811 311.177 73.644 310.644 74.3 309.959 C 74.955 309.276 75.624 308.589 76.293 307.903 C 76.963 307.216 77.634 306.531 78.291 305.851 C 78.949 305.171 79.594 304.495 80.212 303.828 C 80.829 303.163 81.421 302.505 81.973 301.861 C 82.525 301.218 83.036 300.587 83.493 299.973 C 83.951 299.359 84.355 298.763 84.692 298.189 C 85.029 297.613 85.298 297.061 85.486 296.533 C 85.581 296.221 85.652 295.891 85.697 295.547 C 85.742 295.202 85.763 294.844 85.756 294.477 C 85.75 294.108 85.716 293.731 85.654 293.348 C 85.592 292.964 85.501 292.576 85.38 292.188 C 85.26 291.798 85.109 291.408 84.926 291.022 C 84.743 290.635 84.528 290.253 84.279 289.878 C 84.031 289.503 83.75 289.136 83.432 288.783 C 83.116 288.428 82.763 288.086 82.374 287.761 C 82.056 287.491 81.701 287.254 81.318 287.051 C 80.937 286.848 80.528 286.678 80.101 286.543 C 79.674 286.408 79.23 286.306 78.778 286.239 C 78.327 286.171 77.868 286.136 77.411 286.136 C 76.955 286.136 76.5 286.171 76.057 286.238 C 75.615 286.306 75.184 286.408 74.775 286.543 C 74.367 286.678 73.98 286.848 73.623 287.051 C 73.268 287.253 72.944 287.491 72.661 287.761 C 72.378 287.491 72.054 287.253 71.698 287.051 C 71.342 286.848 70.954 286.678 70.545 286.543 C 70.135 286.408 69.704 286.306 69.259 286.238 C 68.815 286.171 68.359 286.136 67.898 286.136 C 67.439 286.136 66.976 286.171 66.52 286.238 C 66.064 286.306 65.615 286.408 65.182 286.543 C 64.748 286.678 64.331 286.848 63.94 287.051 C 63.549 287.253 63.183 287.491 62.853 287.761 C 62.47 288.086 62.123 288.428 61.811 288.782 C 61.497 289.136 61.22 289.503 60.975 289.877 C 60.731 290.253 60.518 290.635 60.338 291.022 C 60.157 291.408 60.007 291.798 59.888 292.188 C 59.769 292.576 59.68 292.964 59.618 293.348 C 59.557 293.731 59.524 294.109 59.518 294.477 C 59.511 294.845 59.532 295.203 59.578 295.548 C 59.623 295.891 59.694 296.221 59.788 296.533 C 59.883 297.061 60.037 297.591 60.251 298.128 C 60.465 298.665 60.736 299.209 61.064 299.765 C 61.391 300.32 61.774 300.888 62.21 301.471 C 62.645 302.055 63.135 302.654 63.674 303.273 C 64.213 303.893 64.803 304.534 65.439 305.2 C 66.077 305.866 66.762 306.557 67.492 307.278 C 68.222 307.999 68.996 308.75 69.814 309.535 C 70.631 310.32 71.298 310.991 72.198 311.85 Z" stroke="#333" style="fill: rgb(255, 255, 255);"/>
    <path d="M 113.389 236.866 C 114.002 236.193 114.835 235.66 115.491 234.975 C 116.146 234.292 116.815 233.605 117.484 232.919 C 118.154 232.232 118.825 231.547 119.482 230.867 C 120.14 230.187 120.785 229.511 121.403 228.844 C 122.02 228.179 122.612 227.521 123.164 226.877 C 123.716 226.234 124.227 225.603 124.684 224.989 C 125.142 224.375 125.546 223.779 125.883 223.205 C 126.22 222.629 126.489 222.077 126.677 221.549 C 126.772 221.237 126.843 220.907 126.888 220.563 C 126.933 220.218 126.954 219.86 126.947 219.493 C 126.941 219.124 126.907 218.747 126.845 218.364 C 126.783 217.98 126.692 217.592 126.571 217.204 C 126.451 216.814 126.3 216.424 126.117 216.038 C 125.934 215.651 125.719 215.269 125.47 214.894 C 125.222 214.519 124.941 214.152 124.623 213.799 C 124.307 213.444 123.954 213.102 123.565 212.777 C 123.247 212.507 122.892 212.27 122.509 212.067 C 122.128 211.864 121.719 211.694 121.292 211.559 C 120.865 211.424 120.421 211.322 119.969 211.255 C 119.518 211.187 119.059 211.152 118.602 211.152 C 118.146 211.152 117.691 211.187 117.248 211.254 C 116.806 211.322 116.375 211.424 115.966 211.559 C 115.558 211.694 115.171 211.864 114.814 212.067 C 114.459 212.269 114.135 212.507 113.852 212.777 C 113.569 212.507 113.245 212.269 112.889 212.067 C 112.533 211.864 112.145 211.694 111.736 211.559 C 111.326 211.424 110.895 211.322 110.45 211.254 C 110.006 211.187 109.55 211.152 109.089 211.152 C 108.63 211.152 108.167 211.187 107.711 211.254 C 107.255 211.322 106.806 211.424 106.373 211.559 C 105.939 211.694 105.522 211.864 105.131 212.067 C 104.74 212.269 104.374 212.507 104.044 212.777 C 103.661 213.102 103.314 213.444 103.002 213.798 C 102.688 214.152 102.411 214.519 102.166 214.893 C 101.922 215.269 101.709 215.651 101.529 216.038 C 101.348 216.424 101.198 216.814 101.079 217.204 C 100.96 217.592 100.871 217.98 100.809 218.364 C 100.748 218.747 100.715 219.125 100.709 219.493 C 100.702 219.861 100.723 220.219 100.769 220.564 C 100.814 220.907 100.885 221.237 100.979 221.549 C 101.074 222.077 101.228 222.607 101.442 223.144 C 101.656 223.681 101.927 224.225 102.255 224.781 C 102.582 225.336 102.965 225.904 103.401 226.487 C 103.836 227.071 104.326 227.67 104.865 228.289 C 105.404 228.909 105.994 229.55 106.63 230.216 C 107.268 230.882 107.953 231.573 108.683 232.294 C 109.413 233.015 110.187 233.766 111.005 234.551 C 111.822 235.336 112.489 236.007 113.389 236.866 Z" stroke="#333" style="fill: rgb(255, 255, 255);"/>
    <path d="M 212.73 226.568 C 213.343 225.895 214.176 225.362 214.832 224.677 C 215.487 223.994 216.156 223.307 216.825 222.621 C 217.495 221.934 218.166 221.249 218.823 220.569 C 219.481 219.889 220.126 219.213 220.744 218.546 C 221.361 217.881 221.953 217.223 222.505 216.579 C 223.057 215.936 223.568 215.305 224.025 214.691 C 224.483 214.077 224.887 213.481 225.224 212.907 C 225.561 212.331 225.83 211.779 226.018 211.251 C 226.113 210.939 226.184 210.609 226.229 210.265 C 226.274 209.92 226.295 209.562 226.288 209.195 C 226.282 208.826 226.248 208.449 226.186 208.066 C 226.124 207.682 226.033 207.294 225.912 206.906 C 225.792 206.516 225.641 206.126 225.458 205.74 C 225.275 205.353 225.06 204.971 224.811 204.596 C 224.563 204.221 224.282 203.854 223.964 203.501 C 223.648 203.146 223.295 202.804 222.906 202.479 C 222.588 202.209 222.233 201.972 221.85 201.769 C 221.469 201.566 221.06 201.396 220.633 201.261 C 220.206 201.126 219.762 201.024 219.31 200.957 C 218.859 200.889 218.4 200.854 217.943 200.854 C 217.487 200.854 217.032 200.889 216.589 200.956 C 216.147 201.024 215.716 201.126 215.307 201.261 C 214.899 201.396 214.512 201.566 214.155 201.769 C 213.8 201.971 213.476 202.209 213.193 202.479 C 212.91 202.209 212.586 201.971 212.23 201.769 C 211.874 201.566 211.486 201.396 211.077 201.261 C 210.667 201.126 210.236 201.024 209.791 200.956 C 209.347 200.889 208.891 200.854 208.43 200.854 C 207.971 200.854 207.508 200.889 207.052 200.956 C 206.596 201.024 206.147 201.126 205.714 201.261 C 205.28 201.396 204.863 201.566 204.472 201.769 C 204.081 201.971 203.715 202.209 203.385 202.479 C 203.002 202.804 202.655 203.146 202.343 203.5 C 202.029 203.854 201.752 204.221 201.507 204.595 C 201.263 204.971 201.05 205.353 200.87 205.74 C 200.689 206.126 200.539 206.516 200.42 206.906 C 200.301 207.294 200.212 207.682 200.15 208.066 C 200.089 208.449 200.056 208.827 200.05 209.195 C 200.043 209.563 200.064 209.921 200.11 210.266 C 200.155 210.609 200.226 210.939 200.32 211.251 C 200.415 211.779 200.569 212.309 200.783 212.846 C 200.997 213.383 201.268 213.927 201.596 214.483 C 201.923 215.038 202.306 215.606 202.742 216.189 C 203.177 216.773 203.667 217.372 204.206 217.991 C 204.745 218.611 205.335 219.252 205.971 219.918 C 206.609 220.584 207.294 221.275 208.024 221.996 C 208.754 222.717 209.528 223.468 210.346 224.253 C 211.163 225.038 211.83 225.709 212.73 226.568 Z" stroke="#333" style="fill: rgb(255, 255, 255);"/>
    <path d="M 313.282 224.75 C 313.895 224.077 314.728 223.544 315.384 222.859 C 316.039 222.176 316.708 221.489 317.377 220.803 C 318.047 220.116 318.718 219.431 319.375 218.751 C 320.033 218.071 320.678 217.395 321.296 216.728 C 321.913 216.063 322.505 215.405 323.057 214.761 C 323.609 214.118 324.12 213.487 324.577 212.873 C 325.035 212.259 325.439 211.663 325.776 211.089 C 326.113 210.513 326.382 209.961 326.57 209.433 C 326.665 209.121 326.736 208.791 326.781 208.447 C 326.826 208.102 326.847 207.744 326.84 207.377 C 326.834 207.008 326.8 206.631 326.738 206.248 C 326.676 205.864 326.585 205.476 326.464 205.088 C 326.344 204.698 326.193 204.308 326.01 203.922 C 325.827 203.535 325.612 203.153 325.363 202.778 C 325.115 202.403 324.834 202.036 324.516 201.683 C 324.2 201.328 323.847 200.986 323.458 200.661 C 323.14 200.391 322.785 200.154 322.402 199.951 C 322.021 199.748 321.612 199.578 321.185 199.443 C 320.758 199.308 320.314 199.206 319.862 199.139 C 319.411 199.071 318.952 199.036 318.495 199.036 C 318.039 199.036 317.584 199.071 317.141 199.138 C 316.699 199.206 316.268 199.308 315.859 199.443 C 315.451 199.578 315.064 199.748 314.707 199.951 C 314.352 200.153 314.028 200.391 313.745 200.661 C 313.462 200.391 313.138 200.153 312.782 199.951 C 312.426 199.748 312.038 199.578 311.629 199.443 C 311.219 199.308 310.788 199.206 310.343 199.138 C 309.899 199.071 309.443 199.036 308.982 199.036 C 308.523 199.036 308.06 199.071 307.604 199.138 C 307.148 199.206 306.699 199.308 306.266 199.443 C 305.832 199.578 305.415 199.748 305.024 199.951 C 304.633 200.153 304.267 200.391 303.937 200.661 C 303.554 200.986 303.207 201.328 302.895 201.682 C 302.581 202.036 302.304 202.403 302.059 202.777 C 301.815 203.153 301.602 203.535 301.422 203.922 C 301.241 204.308 301.091 204.698 300.972 205.088 C 300.853 205.476 300.764 205.864 300.702 206.248 C 300.641 206.631 300.608 207.009 300.602 207.377 C 300.595 207.745 300.616 208.103 300.662 208.448 C 300.707 208.791 300.778 209.121 300.872 209.433 C 300.967 209.961 301.121 210.491 301.335 211.028 C 301.549 211.565 301.82 212.109 302.148 212.665 C 302.475 213.22 302.858 213.788 303.294 214.371 C 303.729 214.955 304.219 215.554 304.758 216.173 C 305.297 216.793 305.887 217.434 306.523 218.1 C 307.161 218.766 307.846 219.457 308.576 220.178 C 309.306 220.899 310.08 221.65 310.898 222.435 C 311.715 223.22 312.382 223.891 313.282 224.75 Z" stroke="#333" style="fill: rgb(255, 255, 255);"/>
    <path d="M 294.535 557.638 C 295.148 556.965 295.981 556.432 296.637 555.747 C 297.292 555.064 297.961 554.377 298.63 553.691 C 299.3 553.004 299.971 552.319 300.628 551.639 C 301.286 550.959 301.931 550.283 302.549 549.616 C 303.166 548.951 303.758 548.293 304.31 547.649 C 304.862 547.006 305.373 546.375 305.83 545.761 C 306.288 545.147 306.692 544.551 307.029 543.977 C 307.366 543.401 307.635 542.849 307.823 542.321 C 307.918 542.009 307.989 541.679 308.034 541.335 C 308.079 540.99 308.1 540.632 308.093 540.265 C 308.087 539.896 308.053 539.519 307.991 539.136 C 307.929 538.752 307.838 538.364 307.717 537.976 C 307.597 537.586 307.446 537.196 307.263 536.81 C 307.08 536.423 306.865 536.041 306.616 535.666 C 306.368 535.291 306.087 534.924 305.769 534.571 C 305.453 534.216 305.1 533.874 304.711 533.549 C 304.393 533.279 304.038 533.042 303.655 532.839 C 303.274 532.636 302.865 532.466 302.438 532.331 C 302.011 532.196 301.567 532.094 301.115 532.027 C 300.664 531.959 300.205 531.924 299.748 531.924 C 299.292 531.924 298.837 531.959 298.394 532.026 C 297.952 532.094 297.521 532.196 297.112 532.331 C 296.704 532.466 296.317 532.636 295.96 532.839 C 295.605 533.041 295.281 533.279 294.998 533.549 C 294.715 533.279 294.391 533.041 294.035 532.839 C 293.679 532.636 293.291 532.466 292.882 532.331 C 292.472 532.196 292.041 532.094 291.596 532.026 C 291.152 531.959 290.696 531.924 290.235 531.924 C 289.776 531.924 289.313 531.959 288.857 532.026 C 288.401 532.094 287.952 532.196 287.519 532.331 C 287.085 532.466 286.668 532.636 286.277 532.839 C 285.886 533.041 285.52 533.279 285.19 533.549 C 284.807 533.874 284.46 534.216 284.148 534.57 C 283.834 534.924 283.557 535.291 283.312 535.665 C 283.068 536.041 282.855 536.423 282.675 536.81 C 282.494 537.196 282.344 537.586 282.225 537.976 C 282.106 538.364 282.017 538.752 281.955 539.136 C 281.894 539.519 281.861 539.897 281.855 540.265 C 281.848 540.633 281.869 540.991 281.915 541.336 C 281.96 541.679 282.031 542.009 282.125 542.321 C 282.22 542.849 282.374 543.379 282.588 543.916 C 282.802 544.453 283.073 544.997 283.401 545.553 C 283.728 546.108 284.111 546.676 284.547 547.259 C 284.982 547.843 285.472 548.442 286.011 549.061 C 286.55 549.681 287.14 550.322 287.776 550.988 C 288.414 551.654 289.099 552.345 289.829 553.066 C 290.559 553.787 291.333 554.538 292.151 555.323 C 292.968 556.108 293.635 556.779 294.535 557.638 Z" style="stroke: rgb(51, 51, 51); stroke-width: 1; fill: rgb(255, 255, 255);"/>
  </g>
  <path d="M 220.088 431.278 C 220.701 430.605 221.534 430.072 222.19 429.387 C 222.845 428.704 223.514 428.017 224.183 427.331 C 224.853 426.644 225.524 425.959 226.181 425.279 C 226.839 424.599 227.484 423.923 228.102 423.256 C 228.719 422.591 229.311 421.933 229.863 421.289 C 230.415 420.646 230.926 420.015 231.383 419.401 C 231.841 418.787 232.245 418.191 232.582 417.617 C 232.919 417.041 233.188 416.489 233.376 415.961 C 233.471 415.649 233.542 415.319 233.587 414.975 C 233.632 414.63 233.653 414.272 233.646 413.905 C 233.64 413.536 233.606 413.159 233.544 412.776 C 233.482 412.392 233.391 412.004 233.27 411.616 C 233.15 411.226 232.999 410.836 232.816 410.45 C 232.633 410.063 232.418 409.681 232.169 409.306 C 231.921 408.931 231.64 408.564 231.322 408.211 C 231.006 407.856 230.653 407.514 230.264 407.189 C 229.946 406.919 229.591 406.682 229.208 406.479 C 228.827 406.276 228.418 406.106 227.991 405.971 C 227.564 405.836 227.12 405.734 226.668 405.667 C 226.217 405.599 225.758 405.564 225.301 405.564 C 224.845 405.564 224.39 405.599 223.947 405.666 C 223.505 405.734 223.074 405.836 222.665 405.971 C 222.257 406.106 221.87 406.276 221.513 406.479 C 221.158 406.681 220.834 406.919 220.551 407.189 C 220.268 406.919 219.944 406.681 219.588 406.479 C 219.232 406.276 218.844 406.106 218.435 405.971 C 218.025 405.836 217.594 405.734 217.149 405.666 C 216.705 405.599 216.249 405.564 215.788 405.564 C 215.329 405.564 214.866 405.599 214.41 405.666 C 213.954 405.734 213.505 405.836 213.072 405.971 C 212.638 406.106 212.221 406.276 211.83 406.479 C 211.439 406.681 211.073 406.919 210.743 407.189 C 210.36 407.514 210.013 407.856 209.701 408.21 C 209.387 408.564 209.11 408.931 208.865 409.305 C 208.621 409.681 208.408 410.063 208.228 410.45 C 208.047 410.836 207.897 411.226 207.778 411.616 C 207.659 412.004 207.57 412.392 207.508 412.776 C 207.447 413.159 207.414 413.537 207.408 413.905 C 207.401 414.273 207.422 414.631 207.468 414.976 C 207.513 415.319 207.584 415.649 207.678 415.961 C 207.773 416.489 207.927 417.019 208.141 417.556 C 208.355 418.093 208.626 418.637 208.954 419.193 C 209.281 419.748 209.664 420.316 210.1 420.899 C 210.535 421.483 211.025 422.082 211.564 422.701 C 212.103 423.321 212.693 423.962 213.329 424.628 C 213.967 425.294 214.652 425.985 215.382 426.706 C 216.112 427.427 216.886 428.178 217.704 428.963 C 218.521 429.748 219.188 430.419 220.088 431.278 Z" style="stroke: rgb(51, 51, 51); stroke-width: 1; fill: rgb(255, 255, 255);"/>
  <path d="M 293.862 303.754 L 301.549 323.91 L 322.459 323.91 L 305.774 337.347 L 313.461 357.502 L 294.396 344.065 L 275.688 357.502 L 282.841 337.347 L 265.8 323.91 L 286.71 323.91 L 293.862 303.754 Z" stroke="#000000" class="twinkle" style="animation-duration: 0s; animation-iteration-count: 1; animation-name: none; animation-timing-function: ease; paint-order: fill; fill: url(&quot;#gradient-2&quot;); stroke-width: 0px;" transform="matrix(0.9994000196456909, -0.03464199975132942, 0.03464199975132942, 0.9994000196456909, -11.277143478393555, 10.387604713439941)"/>
</svg>